# xmcd
#
# Track frame offsets: 
#        188
#        5356
#        20891
#        34777
#        50278
#        66994
#        89353
#        107225
#        121463
#        134782
#        147380
#        163527
#        179092
#        184839
#        207207
#
# Disc length: 2925 seconds
#
# Revision: 1
# Processed by: cddbd v1.5.2PL0 Copyright (c) Steve Scherf et al.
# Submitted via: ExactAudioCopyFreeDBPlugin 1.0
#
DISCID=e30b6b0f
DTITLE=Big and Rich - Comin' To Your City
DYEAR=2005
DGENRE=Country
TTITLE0=The Freak Parade
TTITLE1=Comin' To Your City
TTITLE2=Soul Shaker
TTITLE3=Never Mind Me
TTITLE4=Caught Up In The Moment
TTITLE5=Leap Of Faith
TTITLE6=I Pray For You
TTITLE7=Filthy Rich
TTITLE8=Jalapeño
TTITLE9=20 Margaritas
TTITLE10=Blow my Mind
TTITLE11=Slow Motion
TTITLE12=Kris Kristofferson - 8th of November - Intro
TTITLE13=8th of November
TTITLE14=Big and Rich, Gretchen Wilson, and Cowboy Troy - Our America
EXTD=
EXTT0=
EXTT1=
EXTT2=
EXTT3=
EXTT4=
EXTT5=
EXTT6=
EXTT7=
EXTT8=
EXTT9=
EXTT10=
EXTT11=
EXTT12=
EXTT13=
EXTT14=
PLAYORDER=
